<svg id="Layer_1" data-name="Layer 1" xmlns="http://www.w3.org/2000/svg" viewBox="0 0 70 70">
<defs><style>.cls-1{fill:#150a7c;}</style></defs>
<path class="cls-1" d="M39,20.38a4.05,4.05,0,0,0,3.72,2.45,3.25,3.25,0,0,0,3.37-3.41c0-4.34-7.42-2.48-7.42-8,0-2.62,2-4.46,5.11-4.46a5.22,5.22,0,0,1,3.49,1.11,7,7,0,0,0-.63,2h-.29a3,3,0,0,0-2.8-2.22,2.87,2.87,0,0,0-3,2.93c0,4.41,7.42,2.57,7.42,7.78,0,2.88-2.14,5.3-5.77,5.3a5.72,5.72,0,0,1-3.89-1.34,7,7,0,0,0,.44-2.1Z"/>
<path class="cls-1" d="M55.07,53.82a10.55,10.55,0,0,0-3.17-7.71,13.11,13.11,0,0,0-4.12-2.75A70,70,0,0,0,37.6,40.77a28.58,28.58,0,0,1-6.53-1.91,2.8,2.8,0,0,1-1.83-2.43s0,0,0-.07l-.09,0c.27-.59-.38-.62-.38-.62A9.26,9.26,0,0,1,24,33.49a.53.53,0,0,0-.56-.22l-.44.38a5,5,0,0,0-1.8,3.76c0,1.8,1.47,3.61,4.35,5.41Q14.84,45.46,14.93,54.19A11.28,11.28,0,0,0,20.53,64q5.52,3.6,14.72,3.49t14.49-3.8A11.23,11.23,0,0,0,55.07,53.82Zm-11.36,5.1Q40.62,60.61,35,60.68,23,60.82,23,54.19a5.44,5.44,0,0,1,2.68-4.7,12.5,12.5,0,0,1,7-1.9,23.5,23.5,0,0,1,10.15,1.78q3.95,1.85,4,4.83A5.13,5.13,0,0,1,43.71,58.92Z"/>
<path class="cls-1" d="M27.41,30.86A20.47,20.47,0,0,0,39,31.92a19.24,19.24,0,0,0,4.68-1.8,13.12,13.12,0,0,0,3.48-3c0-.18-.14-.39-.76-.34,0,0-5.41,1.28-9.93-.89,0,0-.36-.4-2.36-.29v-.08a8.56,8.56,0,0,1-5.84-2.09A7.17,7.17,0,0,1,25.85,18a7.51,7.51,0,0,1,2.37-5.62,8.15,8.15,0,0,1,5.85-2.41h.06a1,1,0,0,0,.69-.72A12.71,12.71,0,0,1,39.56,3s.65-.4-2.62-.43c-.41,0-.78,0-1.12-.05q-8,.3-12.73,4.13a13.12,13.12,0,0,0-4.9,10.91Q18.3,26.76,27.41,30.86Z"/></svg>